REM MD5 31a01317c0764c56e5683294b04cfd1e
FILE "PlayStation Demo Disc Winter 1999 - Shock Your System! (USA).bin" BINARY
  TRACK 01 MODE2/2352
    INDEX 01 00:00:00
  TRACK 02 AUDIO
    INDEX 00 52:36:71
    INDEX 01 52:38:71
  TRACK 03 AUDIO
    INDEX 00 57:07:35
    INDEX 01 57:09:35
  TRACK 04 AUDIO
    INDEX 00 57:14:22
    INDEX 01 57:16:22
  TRACK 05 AUDIO
    INDEX 00 59:12:40
    INDEX 01 59:14:40
REM LEADOUT 59:20:36
